# xmcd
#
# Track frame offsets: 
#        150
#        22470
#        41277
#        58216
#        70856
#        84955
#        97722
#        114158
#        127298
#        138758
#        157316
#        173933
#        190310
#        202848
#
# Disc length: 2889 seconds
#
# Revision: 0
# Processed by: cddbd v1.5PL3 Copyright (c) Steve Scherf et al.
# Submitted via: ExactAudioCopy v0.95a4
#
DISCID=c00b470e
DTITLE=黑鸭子 - 黑鸭子-难忘的苏联时代
DYEAR=1900
DGENRE=Pop
TTITLE0=山渣树
TTITLE1=卡秋莎
TTITLE2=寻找
TTITLE3=红莓花儿开
TTITLE4=莫斯科郊外的晚上
TTITLE5=共青团员之歌
TTITLE6=远在小河的对岸
TTITLE7=纺织姑娘
TTITLE8=玛丽诺之歌
TTITLE9=小路
TTITLE10=灯光
TTITLE11=遥远的地方
TTITLE12=红莓花儿开（伴奏）
TTITLE13=莫斯科郊外的晚上（伴奏）
EXTD=
EXTT0=
EXTT1=
EXTT2=
EXTT3=
EXTT4=
EXTT5=
EXTT6=
EXTT7=
EXTT8=
EXTT9=
EXTT10=
EXTT11=
EXTT12=
EXTT13=
PLAYORDER=
